<?xml version="1.0" encoding="UTF-8"?>
<svg id="Layer_1" data-name="Layer 1" xmlns="http://www.w3.org/2000/svg" viewBox="0 0 487.1 491.92">
  <defs>
    <style>
      .cls-1 {
        fill-rule: evenodd;
      }
    </style>
  </defs>
  <path class="cls-1" d="m169.04.21c6.27-.38,12.52-.55,15.48,2.32,2.38,2.7,4.76,5.41,7.14,8.11-.4,3.09-.79,6.18-1.19,9.27-2.91,6.58-7.4,9.91-16.67,10.43-3.97-3.48-7.94-6.95-11.9-10.43.09-11.21,3.72-12.63,7.14-19.7Zm95.23,42.88c33.72-.49,120.22-8.19,127.38,15.07,9.85,32-13.17,42.26-15.48,53.32.4,21.63.79,43.27,1.19,64.91,42.01,18.91,78.49,45.08,96.42,86.93,34.13,79.63-2.29,161.87-53.57,198.2-56.71,40.17-161.34,28.98-258.32,28.98H25c-8.33-7.73-16.67-15.45-25-23.18v-45.2c9.92-13.13,19.84-26.27,29.76-39.41,21.82-32.84,43.65-65.68,65.47-98.52,8.33-11.98,16.67-23.95,25-35.93v-71.86c-3.97-3.48-7.94-6.95-11.9-10.43-10.9-15.8-2.94-47.5,9.52-53.32,9.96-5.53,34.51-2.32,48.81-2.32,38.64,0,81.91-10.67,82.14,28.98.13,22.26-4.33,26.92-15.48,37.09.4,4.25.79,8.5,1.19,12.75h1.19c9.13-4.64,18.25-9.27,27.38-13.91v-67.22c-4.36-3.86-8.73-7.73-13.09-11.59-11.09-22.77,4.04-45.47,14.29-53.32Zm-64.28,6.95c4.76,2.32,9.52,4.64,14.29,6.95.79,3.86,1.59,7.73,2.38,11.59-1.98,3.09-3.97,6.18-5.95,9.27-4.48,1.38-9.17,3.31-14.29,1.16-6.45-2.54-8-5.49-10.71-11.59,1.4-10.83,6.78-12.74,14.29-17.39Zm-50,10.43c3.57.77,7.14,1.55,10.71,2.32,3.79,5,6.32,6.56,7.14,15.07-3.58,7.52-7.03,12.08-17.86,12.75-3.97-3.09-7.94-6.18-11.9-9.27.4-3.86.79-7.73,1.19-11.59,2.71-5.61,5.72-6.08,10.71-9.27Zm128.57,10.43c-4.65,13.99,10.13,13.9,13.09,26.66,5.22,22.48,1.23,87.62-5.95,100.84-19.33,5.1-41.74,13.9-52.38,27.82.79,9.27,1.59,18.55,2.38,27.82,24.6,35.15,49.21,70.32,73.81,105.47,38.39,21.91,107.89,14.77,138.09-8.11,17.12-12.97,11.58-41.34,4.76-61.43-21.15-62.37-48.95-63.75-100-93.88-4.04-15.07-9.65-86.28-2.38-103.15,4.76-5.02,9.52-10.05,14.29-15.07-.4-1.93-.79-3.86-1.19-5.8-28.17-.39-56.35-.77-84.52-1.16Zm-144.04,67.22c-.4,3.09-.79,6.18-1.19,9.27,4.76,4.64,9.52,9.27,14.29,13.91v93.88c-3.69,14.89-16.09,25.71-23.81,37.09-19.44,28.59-38.89,57.18-58.33,85.77v3.48h222.61v-3.48c-21.43-31.68-42.86-63.36-64.28-95.04-5.73-8.38-15.02-16.74-17.86-27.82v-51c0-36.31-.31-40.46,15.48-60.27-.79-1.93-1.59-3.86-2.38-5.8h-84.52Zm38.09,18.54c3.17.39,6.35.77,9.52,1.16,6.83,2.87,9.92,7.42,10.71,16.23-3.57,3.86-7.14,7.73-10.71,11.59-3.17-.39-6.35-.77-9.52-1.16-7.27-2.73-10.31-6.74-10.71-16.23,3.57-3.86,7.14-7.73,10.71-11.59Zm-21.43,143.72c3.17.39,6.35.77,9.52,1.16,6.76,2.83,10.18,7.2,10.71,16.23-4.78,6.37-7.36,9.4-15.48,12.75-6.9-2.64-11.29-5.15-14.29-11.59-2.66-9.98,3.51-13.75,9.52-18.54Zm77.38,38.25c4.36,1.93,8.73,3.86,13.09,5.8,2.22,7.5,2.9,9.55,1.19,17.39-2.78,2.32-5.56,4.64-8.33,6.95-13.75.53-20.13-4.7-20.24-17.39,3.88-7.6,6.79-8.67,14.29-12.75Zm-109.52,2.32c3.57.39,7.14.77,10.71,1.16,3.17,2.7,6.35,5.41,9.52,8.11v9.27c-3.17,3.48-6.35,6.95-9.52,10.43h-9.52c-6.45-3.89-10.16-7.64-11.9-16.23,3.57-4.25,7.14-8.5,10.71-12.75Z"/>
</svg>